<svg version="1.2" xmlns="http://www.w3.org/2000/svg" viewBox="0 0 58 46" width="58" height="46">
	<title>1 (3)-svg</title>
	<style>
		.s0 { fill: #33ff66 } 
		.s1 { opacity: .5;fill: #ffffff;stroke: #ffffff;stroke-linecap: round;stroke-linejoin: round;stroke-width: 4 } 
		.s2 { fill: none;stroke: #00cc66;stroke-linecap: square;stroke-linejoin: undefined;stroke-width: 4 } 
	</style>
	<g id="Layer">
		<path id="Layer" fill-rule="evenodd" class="s0" d="m54.6 15.6v13l-13 13h-26l-13-13v-13l13-13h26zm-39 0h26v13-13h-26v13z"/>
		<path id="Layer" fill-rule="evenodd" class="s1" d="m41.6 28.6v-13h-26"/>
		<path id="Layer" fill-rule="evenodd" class="s2" d="m54.6 15.6v13l-13 13h-26l-13-13v-13l13-13h26z"/>
		<path id="Layer copy" fill-rule="evenodd" class="s2" d="m54.6 15.6v13l-13 13h-26l-13-13v-13l13-13h26z"/>
		<path id="Layer copy 2" fill-rule="evenodd" class="s2" d="m54.6 15.6v13l-13 13h-26l-13-13v-13l13-13h26z"/>
		<path id="Layer copy 3" fill-rule="evenodd" class="s2" d="m54.6 15.6v13l-13 13h-26l-13-13v-13l13-13h26z"/>
		<path id="Layer copy 4" fill-rule="evenodd" class="s2" d="m54.6 15.6v13l-13 13h-26l-13-13v-13l13-13h26z"/>
	</g>
</svg>